// Dark FavIcon
<svg version="1.0" xmlns="http://www.w3.org/2000/svg"
 width="900.000000pt" height="900.000000pt" viewBox="0 0 900.000000 900.000000"
 preserveAspectRatio="xMidYMid meet">
<g transform="translate(0.000000,900.000000) scale(0.100000,-0.100000)"
fill="#000000" stroke="none">
<path d="M0 4500 l0 -4500 4500 0 4500 0 0 4500 0 4500 -4500 0 -4500 0 0
-4500z m4970 4013 c121 -122 272 -286 315 -341 11 -14 32 -39 46 -56 88 -105
359 -484 359 -502 0 -3 11 -20 24 -37 14 -18 30 -43 36 -57 6 -14 26 -52 46
-85 40 -68 181 -357 208 -425 10 -25 23 -56 29 -70 33 -78 72 -194 120 -360
32 -112 65 -274 93 -454 23 -154 23 -580 0 -732 -34 -218 -86 -445 -122 -532
-8 -18 -14 -39 -14 -47 0 -8 -6 -29 -14 -47 -8 -18 -21 -51 -29 -73 -42 -110
-93 -226 -157 -350 -66 -130 -80 -165 -62 -165 4 0 32 16 62 36 224 147 476
395 616 605 41 62 55 77 60 64 4 -9 0 -30 -10 -45 -9 -16 -16 -35 -16 -44 0
-8 -7 -32 -16 -53 -9 -21 -22 -51 -29 -68 -7 -16 -23 -55 -35 -85 -12 -30 -32
-77 -45 -105 -12 -27 -25 -57 -29 -65 -3 -8 -10 -22 -15 -30 -5 -8 -23 -44
-41 -80 -28 -57 -72 -139 -117 -220 -8 -14 -23 -38 -33 -55 -11 -16 -23 -37
-26 -45 -4 -8 -13 -22 -19 -30 -7 -8 -21 -31 -32 -50 -10 -20 -38 -64 -63 -99
-87 -122 -217 -296 -246 -330 -219 -256 -379 -413 -629 -617 -49 -40 -103 -79
-220 -159 -74 -51 -254 -160 -277 -168 -29 -10 -21 -27 13 -27 28 0 196 45
279 75 170 61 379 153 412 182 9 8 19 10 22 5 13 -22 -242 -247 -419 -367 -38
-27 -97 -67 -130 -90 -34 -23 -67 -44 -75 -48 -8 -4 -28 -16 -45 -27 -16 -11
-37 -23 -45 -26 -8 -4 -22 -13 -30 -19 -37 -30 -357 -193 -460 -235 -30 -12
-89 -36 -130 -52 -41 -16 -90 -36 -108 -44 -18 -8 -39 -14 -47 -14 -8 0 -29
-6 -47 -14 -18 -8 -62 -22 -98 -31 -36 -9 -85 -22 -110 -30 -70 -20 -158 -42
-240 -60 -309 -68 -531 -161 -673 -283 -238 -204 -352 -454 -364 -792 -3 -93
0 -158 10 -208 25 -128 -9 -103 -93 68 -92 189 -130 345 -130 529 0 113 7 152
59 336 10 37 86 182 129 250 105 162 376 410 711 649 30 21 59 43 65 48 6 4
45 33 86 63 41 30 88 65 104 77 16 13 54 41 85 62 55 38 209 153 346 258 202
155 301 232 305 237 3 4 60 50 126 103 209 167 548 489 689 653 28 32 64 74
81 94 185 215 365 514 454 751 17 47 38 100 46 118 16 37 19 82 5 82 -5 0 -21
-24 -35 -52 -14 -29 -41 -80 -61 -113 -19 -33 -39 -69 -45 -80 -31 -58 -140
-221 -214 -320 -164 -220 -376 -450 -601 -653 -101 -90 -363 -289 -530 -402
-60 -41 -136 -92 -168 -114 -32 -23 -65 -46 -75 -51 -9 -6 -136 -89 -282 -186
-297 -197 -465 -307 -558 -365 -35 -21 -73 -46 -86 -54 -13 -8 -66 -41 -119
-73 -53 -32 -99 -62 -102 -67 -13 -21 -45 -10 -51 17 -21 82 28 580 72 738 38
132 47 162 59 190 7 17 21 50 31 75 29 71 102 189 156 255 27 33 125 137 217
230 173 176 265 274 413 435 132 145 147 161 186 210 21 25 63 75 94 112 107
126 388 512 388 533 0 3 12 24 27 48 65 103 151 274 196 392 17 45 40 126 58
200 21 86 40 105 52 53 3 -13 15 -48 26 -78 23 -58 51 -145 71 -220 25 -92 40
-279 28 -363 -14 -106 -1 -118 44 -40 69 118 135 275 171 403 35 124 48 214
53 366 5 142 19 244 44 308 4 11 15 55 24 96 10 41 23 102 31 135 53 238 95
641 95 909 0 212 -27 501 -66 701 -43 223 -121 484 -180 598 -17 34 -18 57 -3
57 7 0 69 -57 139 -127z"/>
</g>
</svg>
