<svg xmlns="http://www.w3.org/2000/svg" version="1.1" width="900.000000pt" height="900.000000pt" style="shape-rendering:geometricPrecision; text-rendering:geometricPrecision; image-rendering:optimizeQuality; fill-rule:evenodd; clip-rule:evenodd" xmlns:xlink="http://www.w3.org/1999/xlink">
<g><path style="opacity:1" fill="#000000" d="M -0.5,-0.5 C 166.167,-0.5 332.833,-0.5 499.5,-0.5C 499.5,166.167 499.5,332.833 499.5,499.5C 332.833,499.5 166.167,499.5 -0.5,499.5C -0.5,332.833 -0.5,166.167 -0.5,-0.5 Z"/></g>
<g><path style="opacity:1" fill="#fdfdfd" d="M 266.5,18.5 C 266.897,17.475 267.563,17.3083 268.5,18C 296.569,44.0637 318.402,74.5637 334,109.5C 356.216,163.727 352.716,216.227 323.5,267C 341.144,257.026 355.311,243.193 366,225.5C 347.54,284.57 311.374,329.403 257.5,360C 263.2,359.16 268.866,357.826 274.5,356C 283.29,352.632 291.957,349.298 300.5,346C 274.687,371.085 244.354,388.752 209.5,399C 197.512,401.999 185.512,404.999 173.5,408C 141.425,421.638 128.258,445.805 134,480.5C 114.781,450.014 117.614,421.848 142.5,396C 149.019,390.904 155.352,385.571 161.5,380C 187.704,361.396 213.371,342.063 238.5,322C 259.953,304.225 278.12,283.725 293,260.5C 298.744,250.371 302.744,239.704 305,228.5C 284.923,268.245 256.09,300.078 218.5,324C 193.269,340.894 167.769,357.394 142,373.5C 139.411,349.78 143.744,327.447 155,306.5C 169.3,290.532 183.967,274.865 199,259.5C 216.46,240.694 230.794,219.694 242,196.5C 244.61,189.671 246.61,182.671 248,175.5C 255.957,190.283 258.624,205.95 256,222.5C 267.417,204.499 272.751,184.832 272,163.5C 285.485,119.906 285.819,76.2398 273,32.5C 271.488,27.4334 269.321,22.7667 266.5,18.5 Z"/></g>
</svg>