<svg version="1.0" xmlns="http://www.w3.org/2000/svg"
 width="900.000000pt" height="900.000000pt" viewBox="0 0 900.000000 900.000000"
 preserveAspectRatio="xMidYMid meet">
<g transform="translate(0.000000,900.000000) scale(0.100000,-0.100000)"
fill="#000000" stroke="none">
<path d="M4820 8626 c0 -8 6 -27 14 -43 59 -114 137 -375 180 -598 39 -200 66
-489 66 -701 0 -268 -42 -671 -95 -909 -8 -33 -21 -94 -31 -135 -9 -41 -20
-85 -24 -96 -25 -64 -39 -166 -44 -308 -5 -152 -18 -242 -53 -366 -36 -128
-102 -285 -171 -403 -45 -78 -58 -66 -44 40 12 84 -3 271 -28 363 -20 75 -48
162 -71 220 -11 30 -23 65 -26 78 -12 52 -31 33 -52 -53 -18 -74 -41 -155 -58
-200 -45 -118 -131 -289 -196 -392 -15 -24 -27 -45 -27 -48 0 -21 -281 -407
-388 -533 -31 -37 -73 -87 -94 -112 -39 -49 -54 -65 -186 -210 -148 -161 -240
-259 -413 -435 -92 -93 -190 -197 -217 -230 -54 -66 -127 -184 -156 -255 -10
-25 -24 -58 -31 -75 -12 -28 -21 -58 -59 -190 -44 -158 -93 -656 -72 -738 6
-27 38 -38 51 -17 3 5 49 35 102 67 53 32 106 65 119 73 13 8 51 33 86 54 93
58 261 168 558 365 146 97 273 180 282 186 10 5 43 28 75 51 32 22 108 73 168
114 167 113 429 312 530 402 225 203 437 433 601 653 74 99 183 262 214 320 6
11 26 47 45 80 20 33 47 84 61 113 14 28 30 52 35 52 14 0 11 -45 -5 -82 -8
-18 -29 -71 -46 -118 -89 -237 -269 -536 -454 -751 -17 -20 -53 -62 -81 -94
-141 -164 -480 -486 -689 -653 -66 -53 -123 -99 -126 -103 -4 -5 -103 -82
-305 -237 -137 -105 -291 -220 -346 -258 -31 -21 -69 -49 -85 -62 -16 -12 -63
-47 -104 -77 -41 -30 -80 -59 -86 -63 -6 -5 -35 -27 -65 -48 -335 -239 -606
-487 -711 -649 -43 -68 -119 -213 -129 -250 -52 -184 -59 -223 -59 -336 0
-184 38 -340 130 -529 84 -171 118 -196 93 -68 -10 50 -13 115 -10 208 12 338
126 588 364 792 142 122 364 215 673 283 82 18 170 40 240 60 25 8 74 21 110
30 36 9 80 23 98 31 18 8 39 14 47 14 8 0 29 6 47 14 18 8 67 28 108 44 41 16
100 40 130 52 103 42 423 205 460 235 8 6 22 15 30 19 8 3 29 15 45 26 17 11
37 23 45 27 8 4 41 25 75 48 33 23 92 63 130 90 177 120 432 345 419 367 -3 5
-13 3 -22 -5 -33 -29 -242 -121 -412 -182 -83 -30 -251 -75 -279 -75 -34 0
-42 17 -13 27 60 22 381 232 497 327 250 204 410 361 629 617 29 34 159 208
246 330 25 35 53 79 63 99 11 19 25 42 32 50 6 8 15 22 19 30 3 8 15 29 26 45
10 17 25 41 33 55 45 81 89 163 117 220 18 36 36 72 41 80 5 8 12 22 15 30 4
8 17 38 29 65 13 28 33 75 45 105 12 30 28 69 35 85 7 17 20 47 29 68 9 21 16
45 16 53 0 9 7 28 16 44 10 15 14 36 10 45 -5 13 -19 -2 -60 -64 -140 -210
-392 -458 -616 -605 -30 -20 -58 -36 -62 -36 -18 0 -4 35 62 165 64 124 115
240 157 350 8 22 21 55 29 73 8 18 14 39 14 47 0 8 6 29 14 47 36 87 88 314
122 532 23 152 23 578 0 732 -28 180 -61 342 -93 454 -48 166 -87 282 -120
360 -6 14 -19 45 -29 70 -27 68 -168 357 -208 425 -20 33 -40 71 -46 85 -6 14
-22 39 -36 57 -13 17 -24 34 -24 37 0 18 -271 397 -359 502 -14 17 -35 42 -46
56 -80 104 -434 468 -454 468 -6 0 -11 -6 -11 -14z"/>
</g>
</svg>
